<?xml version="1.0" encoding="UTF-8" standalone="no"?>
<!-- Created with Vectornator (http://vectornator.io/) -->

<svg
   height="477.7178pt"
   stroke-miterlimit="10"
   style="clip-rule:evenodd;fill-rule:nonzero;stroke-linecap:round;stroke-linejoin:round"
   version="1.1"
   viewBox="0 0 1197.64 477.7178"
   width="1197.64pt"
   xml:space="preserve"
   id="svg80"
   sodipodi:docname="UniKonstanz_LogoW.svg"
   inkscape:version="1.3.2 (091e20e, 2023-11-25, custom)"
   inkscape:export-filename="UniKonstanz_LogoW.png"
   inkscape:export-xdpi="96"
   inkscape:export-ydpi="96"
   xmlns:inkscape="http://www.inkscape.org/namespaces/inkscape"
   xmlns:sodipodi="http://sodipodi.sourceforge.net/DTD/sodipodi-0.dtd"
   xmlns="http://www.w3.org/2000/svg"
   xmlns:svg="http://www.w3.org/2000/svg"><sodipodi:namedview
   id="namedview80"
   pagecolor="#000000"
   bordercolor="#000000"
   borderopacity="1"
   inkscape:showpageshadow="2"
   inkscape:pageopacity="0.0"
   inkscape:pagecheckerboard="0"
   inkscape:deskcolor="#d1d1d1"
   inkscape:document-units="pt"
   showgrid="false"
   inkscape:zoom="0.51862856"
   inkscape:cx="695.10249"
   inkscape:cy="376.95572"
   inkscape:window-width="1920"
   inkscape:window-height="991"
   inkscape:window-x="-9"
   inkscape:window-y="-9"
   inkscape:window-maximized="1"
   inkscape:current-layer="svg80"><inkscape:grid
     id="grid80"
     units="pt"
     originx="-51.899998"
     originy="-20.140199"
     spacingx="1"
     spacingy="0.99999997"
     empcolor="#0099e5"
     empopacity="0.30196078"
     color="#0099e5"
     opacity="0.14901961"
     empspacing="5"
     dotted="false"
     gridanglex="30"
     gridanglez="30"
     visible="false" /></sodipodi:namedview>
<defs
   id="defs1" />
<g
   id="Layer-2"
   transform="translate(-51.9,-20.1402)">
<path
   d="M 776.373,23.3902 H 1246.29 V 494.608 H 776.373 Z"
   fill="#000000"
   fill-opacity="0"
   fill-rule="nonzero"
   opacity="1"
   stroke="#ffffff"
   stroke-linecap="butt"
   stroke-linejoin="round"
   stroke-width="5"
   id="path1"
   style="stroke-width:6.5;stroke-dasharray:none" />
<path
   d="m 1070.09,254.515 27.96,-72.214 -10,74.908 10.39,-74.266 9.23,75.549 -9.1,-76.704 29.75,75.549 c 0,0 -30.55,-74.88 -30.07,-75.054 0.49,-0.174 0.45,-0.873 0.22,-0.553 -0.23,0.32 -0.78,1.683 0.01,1.274"
   fill="#000000"
   fill-opacity="0"
   fill-rule="nonzero"
   opacity="1"
   stroke="#ffffff"
   stroke-linecap="butt"
   stroke-linejoin="round"
   stroke-width="5"
   id="path2"
   style="stroke-width:6.5;stroke-dasharray:none" />
<path
   d="m 1006.53,144.229 -25.51,17.912 -25.297,-18.562"
   fill="none"
   opacity="1"
   stroke="#ffffff"
   stroke-linecap="butt"
   stroke-linejoin="round"
   stroke-width="5"
   id="path3"
   style="stroke-width:6.5;stroke-dasharray:none" />
<path
   d="m 1128.81,160.461 h -120.2"
   fill="none"
   opacity="1"
   stroke="#ffffff"
   stroke-linecap="butt"
   stroke-linejoin="round"
   stroke-width="5"
   id="path4"
   style="stroke-width:6.5;stroke-dasharray:none" />
<path
   d="M 836.699,160.461 H 776.373"
   fill="none"
   opacity="1"
   stroke="#ffffff"
   stroke-linecap="butt"
   stroke-linejoin="round"
   stroke-width="5"
   id="path5"
   style="stroke-width:6.5;stroke-dasharray:none" />
<path
   d="M 1246.29,182.057 H 836.699"
   fill="none"
   opacity="1"
   stroke="#ffffff"
   stroke-linecap="butt"
   stroke-linejoin="round"
   stroke-width="5"
   id="path6"
   style="stroke-width:6.5;stroke-dasharray:none" />
<path
   d="M 1246.29,318.453 H 1011.33"
   fill="none"
   opacity="1"
   stroke="#ffffff"
   stroke-linecap="butt"
   stroke-linejoin="round"
   stroke-width="5"
   id="path7"
   style="stroke-width:6.5;stroke-dasharray:none" />
<path
   d="M 1187.68,347.351 H 1008.56"
   fill="none"
   opacity="1"
   stroke="#ffffff"
   stroke-linecap="butt"
   stroke-linejoin="round"
   stroke-width="5"
   id="path8"
   style="stroke-width:6.5;stroke-dasharray:none" />
<path
   d="m 836.699,43.4663 86.162,58.4977"
   fill="none"
   opacity="1"
   stroke="#ffffff"
   stroke-linecap="butt"
   stroke-linejoin="round"
   stroke-width="5"
   id="path9"
   style="stroke-width:6.5;stroke-dasharray:none" />
<path
   d="M 922.861,62.0863 H 862.514"
   fill="none"
   opacity="1"
   stroke="#ffffff"
   stroke-linecap="butt"
   stroke-linejoin="round"
   stroke-width="5"
   id="path10"
   style="stroke-width:6.5;stroke-dasharray:none" />
<path
   d="M 954.094,160.461 H 895.235"
   fill="none"
   opacity="1"
   stroke="#ffffff"
   stroke-linecap="butt"
   stroke-linejoin="round"
   stroke-width="5"
   id="path11"
   style="stroke-width:6.5;stroke-dasharray:none" />
<path
   d="m 1156.32,364.847 v 59.02"
   fill="none"
   opacity="1"
   stroke="#ffffff"
   stroke-linecap="butt"
   stroke-linejoin="round"
   stroke-width="5"
   id="path12"
   style="stroke-width:6.5;stroke-dasharray:none" />
<path
   d="m 1099.42,363.989 v 59.008"
   fill="none"
   opacity="1"
   stroke="#ffffff"
   stroke-linecap="butt"
   stroke-linejoin="round"
   stroke-width="5"
   id="path13"
   style="stroke-width:6.5;stroke-dasharray:none" />
<path
   d="M 1069.42,238.475 V 491.219"
   fill="none"
   opacity="1"
   stroke="#ffffff"
   stroke-linecap="butt"
   stroke-linejoin="round"
   stroke-width="5"
   id="path14"
   style="stroke-width:6.5;stroke-dasharray:none" />
<path
   d="M 1088.41,259 V 462.224"
   fill="none"
   opacity="1"
   stroke="#ffffff"
   stroke-linecap="butt"
   stroke-linejoin="round"
   stroke-width="5"
   id="path15"
   style="stroke-width:6.5;stroke-dasharray:none" />
<path
   d="M 954.115,80.634 V 258.048"
   fill="none"
   opacity="1"
   stroke="#ffffff"
   stroke-linecap="butt"
   stroke-linejoin="round"
   stroke-width="5"
   id="path16"
   style="stroke-width:6.5;stroke-dasharray:none" />
<path
   d="M 922.861,43.4663 V 160.461"
   fill="none"
   opacity="1"
   stroke="#ffffff"
   stroke-linecap="butt"
   stroke-linejoin="round"
   stroke-width="5"
   id="path17"
   style="stroke-width:6.5;stroke-dasharray:none" />
<path
   d="M 1008.61,23.3902 V 494.608"
   fill="none"
   opacity="1"
   stroke="#ffffff"
   stroke-linecap="butt"
   stroke-linejoin="round"
   stroke-width="5"
   id="path18"
   style="stroke-width:6.5;stroke-dasharray:none" />
<path
   d="M 1130.12,23.3902 V 200.557"
   fill="none"
   opacity="1"
   stroke="#ffffff"
   stroke-linecap="butt"
   stroke-linejoin="round"
   stroke-width="5"
   id="path19"
   style="stroke-width:6.5;stroke-dasharray:none" />
<path
   d="M 836.699,43.4663 V 200.557"
   fill="none"
   opacity="1"
   stroke="#ffffff"
   stroke-linecap="butt"
   stroke-linejoin="round"
   stroke-width="5"
   id="path20"
   style="stroke-width:6.5;stroke-dasharray:none" />
<path
   d="m 805.445,23.3902 0.844,137.0708"
   fill="none"
   opacity="1"
   stroke="#ffffff"
   stroke-linecap="butt"
   stroke-linejoin="round"
   stroke-width="5"
   id="path21"
   style="stroke-width:6.5;stroke-dasharray:none" />
<path
   d="m 836.699,462.198 v 32.41"
   fill="none"
   opacity="1"
   stroke="#ffffff"
   stroke-linecap="butt"
   stroke-linejoin="round"
   stroke-width="5"
   id="path22"
   style="stroke-width:6.5;stroke-dasharray:none" />
<path
   d="M 954.115,374.175 V 494.608"
   fill="none"
   opacity="1"
   stroke="#ffffff"
   stroke-linecap="butt"
   stroke-linejoin="round"
   stroke-width="5"
   id="path23"
   style="stroke-width:6.5;stroke-dasharray:none" />
<path
   d="m 1069.42,141.454 v 59.157"
   fill="none"
   opacity="1"
   stroke="#ffffff"
   stroke-linecap="butt"
   stroke-linejoin="round"
   stroke-width="5"
   id="path24"
   style="stroke-width:6.5;stroke-dasharray:none" />
<path
   d="M 1187.68,142.299 V 494.608"
   fill="none"
   opacity="1"
   stroke="#ffffff"
   stroke-linecap="butt"
   stroke-linejoin="round"
   stroke-width="5"
   id="path25"
   style="stroke-width:6.5;stroke-dasharray:none" />
<path
   d="m 1030.81,296.608 -0.4,165.59"
   fill="none"
   opacity="1"
   stroke="#ffffff"
   stroke-linecap="butt"
   stroke-linejoin="round"
   stroke-width="5"
   id="path26"
   style="stroke-width:6.5;stroke-dasharray:none" />
<path
   d="m 1050.28,297.006 0.8,165.192"
   fill="none"
   opacity="1"
   stroke="#ffffff"
   stroke-linecap="butt"
   stroke-linejoin="round"
   stroke-width="5"
   id="path27"
   style="stroke-width:6.5;stroke-dasharray:none" />
<path
   d="m 1041.18,363.989 v 59.008"
   fill="none"
   opacity="1"
   stroke="#ffffff"
   stroke-linecap="butt"
   stroke-linejoin="round"
   stroke-width="5"
   id="path28"
   style="stroke-width:6.5;stroke-dasharray:none" />
<path
   d="M 895.235,23.3902 V 494.61"
   fill="none"
   opacity="1"
   stroke="#ffffff"
   stroke-linecap="butt"
   stroke-linejoin="round"
   stroke-width="5"
   id="path29"
   style="stroke-width:6.5;stroke-dasharray:none" />
<path
   d="m 1099.42,160.461 v 21.596"
   fill="none"
   opacity="1"
   stroke="#ffffff"
   stroke-linecap="butt"
   stroke-linejoin="round"
   stroke-width="5"
   id="path30"
   style="stroke-width:6.5;stroke-dasharray:none" />
<path
   d="M 1109.06,258.044 V 462.198"
   fill="none"
   opacity="1"
   stroke="#ffffff"
   stroke-linecap="butt"
   stroke-linejoin="round"
   stroke-width="5"
   id="path31"
   style="stroke-width:6.5;stroke-dasharray:none" />
<path
   d="M 1130.12,238.475 V 494.61"
   fill="none"
   opacity="1"
   stroke="#ffffff"
   stroke-linecap="butt"
   stroke-linejoin="round"
   stroke-width="5"
   id="path32"
   style="stroke-width:6.5;stroke-dasharray:none" />
<path
   d="M 1146.22,297.006 V 462.229"
   fill="none"
   opacity="1"
   stroke="#ffffff"
   stroke-linecap="butt"
   stroke-linejoin="round"
   stroke-width="5"
   id="path33"
   style="stroke-width:6.5;stroke-dasharray:none" />
<path
   d="M 1167.79,297.006 V 462.198"
   fill="none"
   opacity="1"
   stroke="#ffffff"
   stroke-linecap="butt"
   stroke-linejoin="round"
   stroke-width="5"
   id="path34"
   style="stroke-width:6.5;stroke-dasharray:none" />
<path
   d="M 1246.29,141.454 H 776.373"
   fill="none"
   opacity="1"
   stroke="#ffffff"
   stroke-linecap="butt"
   stroke-linejoin="round"
   stroke-width="5"
   id="path35"
   style="stroke-width:6.5;stroke-dasharray:none" />
<path
   d="M 1246.29,200.557 H 776.373"
   fill="none"
   opacity="1"
   stroke="#ffffff"
   stroke-linecap="butt"
   stroke-linejoin="round"
   stroke-width="5"
   id="path36"
   style="stroke-width:6.5;stroke-dasharray:none" />
<path
   d="M 1246.29,259 H 776.373"
   fill="none"
   opacity="1"
   stroke="#ffffff"
   stroke-linecap="butt"
   stroke-linejoin="round"
   stroke-width="5"
   id="path37"
   style="stroke-width:6.5;stroke-dasharray:none" />
<path
   d="M 1246.29,374.175 H 776.344"
   fill="none"
   opacity="1"
   stroke="#ffffff"
   stroke-linecap="butt"
   stroke-linejoin="round"
   stroke-width="5"
   id="path38"
   style="stroke-width:6.5;stroke-dasharray:none" />
<path
   d="m 1246.29,160.461 h -58.61"
   fill="none"
   opacity="1"
   stroke="#ffffff"
   stroke-linecap="butt"
   stroke-linejoin="round"
   stroke-width="5"
   id="path39"
   style="stroke-width:6.5;stroke-dasharray:none" />
<path
   d="M 1246.29,462.229 H 776.373"
   fill="none"
   opacity="1"
   stroke="#ffffff"
   stroke-linecap="butt"
   stroke-linejoin="round"
   stroke-width="5"
   id="path40"
   style="stroke-width:6.5;stroke-dasharray:none" />
<path
   d="M 1008.61,122.012 H 776.373"
   fill="none"
   opacity="1"
   stroke="#ffffff"
   stroke-linecap="butt"
   stroke-linejoin="round"
   stroke-width="5"
   id="path41"
   style="stroke-width:6.5;stroke-dasharray:none" />
<path
   d="M 922.861,101.964 H 776.373"
   fill="none"
   opacity="1"
   stroke="#ffffff"
   stroke-linecap="butt"
   stroke-linejoin="round"
   stroke-width="5"
   id="path42"
   style="stroke-width:6.5;stroke-dasharray:none" />
<path
   d="M 836.699,80.634 H 776.373"
   fill="none"
   opacity="1"
   stroke="#ffffff"
   stroke-linecap="butt"
   stroke-linejoin="round"
   stroke-width="5"
   id="path43"
   style="stroke-width:6.5;stroke-dasharray:none" />
<path
   d="M 836.699,62.0863 H 776.34"
   fill="none"
   opacity="1"
   stroke="#ffffff"
   stroke-linecap="butt"
   stroke-linejoin="round"
   stroke-width="5"
   id="path44"
   style="stroke-width:6.5;stroke-dasharray:none" />
<path
   d="M 805.445,43.4663 H 776.373"
   fill="none"
   opacity="1"
   stroke="#ffffff"
   stroke-linecap="butt"
   stroke-linejoin="round"
   stroke-width="5"
   id="path45"
   style="stroke-width:6.5;stroke-dasharray:none" />
<path
   d="M 925.381,43.4663 H 834.283"
   fill="none"
   opacity="1"
   stroke="#ffffff"
   stroke-linecap="butt"
   stroke-linejoin="round"
   stroke-width="5"
   id="path46"
   style="stroke-width:6.5;stroke-dasharray:none" />
<path
   d="M 922.861,80.634 H 892.492"
   fill="none"
   opacity="1"
   stroke="#ffffff"
   stroke-linecap="butt"
   stroke-linejoin="round"
   stroke-width="5"
   id="path47"
   style="stroke-width:6.5;stroke-dasharray:none" />
<path
   d="M 1246.29,434.391 H 892.492"
   fill="none"
   opacity="1"
   stroke="#ffffff"
   stroke-linecap="butt"
   stroke-linejoin="round"
   stroke-width="5"
   id="path48"
   style="stroke-width:6.5;stroke-dasharray:none" />
<path
   d="M 1008.56,238.475 H 954.115"
   fill="none"
   opacity="1"
   stroke="#ffffff"
   stroke-linecap="butt"
   stroke-linejoin="round"
   stroke-width="5"
   id="path49"
   style="stroke-width:6.5;stroke-dasharray:none" />
<path
   d="m 1246.29,220.802 h -58.61"
   fill="none"
   opacity="1"
   stroke="#ffffff"
   stroke-linecap="butt"
   stroke-linejoin="round"
   stroke-width="5"
   id="path50"
   style="stroke-width:6.5;stroke-dasharray:none" />
<path
   d="M 1008.56,219.29 H 954.094"
   fill="none"
   opacity="1"
   stroke="#ffffff"
   stroke-linecap="butt"
   stroke-linejoin="round"
   stroke-width="5"
   id="path51"
   style="stroke-width:6.5;stroke-dasharray:none" />
<path
   d="M 1008.56,122.012 954.094,85.3006"
   fill="none"
   opacity="1"
   stroke="#ffffff"
   stroke-linecap="butt"
   stroke-linejoin="round"
   stroke-width="5"
   id="path52"
   style="stroke-width:6.5;stroke-dasharray:none" />
<path
   d="m 1181.72,142.104 -25.51,17.912 -25.29,-18.562"
   fill="none"
   opacity="1"
   stroke="#ffffff"
   stroke-linecap="butt"
   stroke-linejoin="round"
   stroke-width="5"
   id="path53"
   style="stroke-width:6.5;stroke-dasharray:none" />
<path
   d="m 892.492,142.104 -27.804,17.912 -27.575,-18.562"
   fill="none"
   opacity="1"
   stroke="#ffffff"
   stroke-linecap="butt"
   stroke-linejoin="round"
   stroke-width="5"
   id="path54"
   style="stroke-width:6.5;stroke-dasharray:none" />
<path
   d="m 1188.62,371.855 26.82,-52.57 27.9,51.713"
   fill="none"
   opacity="1"
   stroke="#ffffff"
   stroke-linecap="butt"
   stroke-linejoin="round"
   stroke-width="5"
   id="path55"
   style="stroke-width:6.5;stroke-dasharray:none" />
<path
   d="m 895.5,434.391 27.611,-60.216 28.716,59.235"
   fill="none"
   opacity="1"
   stroke="#ffffff"
   stroke-linecap="butt"
   stroke-linejoin="round"
   stroke-width="5"
   id="path56"
   style="stroke-width:6.5;stroke-dasharray:none" />
<path
   d="m 954.115,434.391 26.691,-60.216 27.754,59.235"
   fill="none"
   opacity="1"
   stroke="#ffffff"
   stroke-linecap="butt"
   stroke-linejoin="round"
   stroke-width="5"
   id="path57"
   style="stroke-width:6.5;stroke-dasharray:none" />
<path
   d="m 1008.56,488.051 c 0,0 -23.099,-36.651 -54.466,-4.19"
   fill="none"
   opacity="1"
   stroke="#ffffff"
   stroke-linecap="butt"
   stroke-linejoin="round"
   stroke-width="5"
   id="path58"
   style="stroke-width:6.5;stroke-dasharray:none" />
<path
   d="m 954.094,485.511 c 0,0 -24.852,-31.364 -58.594,-3.586"
   fill="none"
   opacity="1"
   stroke="#ffffff"
   stroke-linecap="butt"
   stroke-linejoin="round"
   stroke-width="5"
   id="path59"
   style="stroke-width:6.5;stroke-dasharray:none" />
<path
   d="m 895.235,485.511 c 0,0 -24.828,-31.364 -58.536,-3.586"
   fill="none"
   opacity="1"
   stroke="#ffffff"
   stroke-linecap="butt"
   stroke-linejoin="round"
   stroke-width="5"
   id="path60"
   style="stroke-width:6.5;stroke-dasharray:none" />
<path
   d="m 837.113,485.511 c 0,0 -25.763,-31.364 -60.74,-3.586"
   fill="none"
   opacity="1"
   stroke="#ffffff"
   stroke-linecap="butt"
   stroke-linejoin="round"
   stroke-width="5"
   id="path61"
   style="stroke-width:6.5;stroke-dasharray:none" />
<g
   opacity="1"
   id="g80">
<path
   d="m 51.9,134.299 h 9.52 v 60.06 c 0,12.506 2.3333,21.513 7,27.02 4.6667,5.506 12.18,8.26 22.54,8.26 5.4133,0 10.01,-0.724 13.79,-2.17 3.78,-1.447 6.837,-3.64 9.17,-6.58 2.333,-2.94 4.013,-6.604 5.04,-10.99 1.027,-4.387 1.54,-9.567 1.54,-15.54 v -60.06 h 9.52 v 62.86 c 0,13.16 -3.243,23.216 -9.73,30.17 -6.487,6.953 -16.263,10.43 -29.33,10.43 -13.16,0 -22.96,-3.547 -29.4,-10.64 -6.44,-7.094 -9.66,-17.08 -9.66,-29.96 z"
   fill="#ffffff"
   fill-rule="nonzero"
   opacity="1"
   stroke="none"
   id="path62" />
<path
   d="m 159.98,235.099 h -8.4 v -72.52 h 8.4 v 10.08 c 3.36,-3.547 6.837,-6.44 10.43,-8.68 3.593,-2.24 7.91,-3.36 12.95,-3.36 4.48,0 8.633,0.77 12.46,2.31 3.827,1.54 7.047,4.223 9.66,8.05 1.773,2.613 2.823,5.296 3.15,8.05 0.327,2.753 0.49,5.623 0.49,8.61 v 47.46 h -8.4 v -47.32 c 0,-6.534 -1.447,-11.434 -4.34,-14.7 -2.893,-3.267 -7.7,-4.9 -14.42,-4.9 -2.613,0 -4.993,0.396 -7.14,1.19 -2.147,0.793 -4.083,1.843 -5.81,3.15 -1.727,1.306 -3.197,2.8 -4.41,4.48 -1.213,1.68 -2.147,3.453 -2.8,5.32 -0.84,2.333 -1.353,4.573 -1.54,6.72 -0.187,2.146 -0.28,4.48 -0.28,7 z"
   fill="#ffffff"
   fill-rule="nonzero"
   opacity="1"
   stroke="none"
   id="path63" />
<path
   d="m 230.68,235.099 v -72.52 h 8.4 v 72.52 z m -0.42,-88.34 v -12.46 h 9.24 v 12.46 z"
   fill="#ffffff"
   fill-rule="nonzero"
   opacity="1"
   stroke="none"
   id="path64" />
<path
   d="m 252.8,162.579 h 9.1 l 23.52,62.16 23.52,-62.16 h 9.1 l -28.14,72.52 h -9.38 z"
   fill="#ffffff"
   fill-rule="nonzero"
   opacity="1"
   stroke="none"
   id="path65" />
<path
   d="m 383,193.799 c 0,-3.547 -0.49,-6.884 -1.47,-10.01 -0.98,-3.127 -2.427,-5.834 -4.34,-8.12 -1.913,-2.287 -4.317,-4.107 -7.21,-5.46 -2.893,-1.354 -6.207,-2.03 -9.94,-2.03 -3.733,0 -7.023,0.7 -9.87,2.1 -2.847,1.4 -5.273,3.266 -7.28,5.6 -2.007,2.333 -3.617,5.04 -4.83,8.12 -1.213,3.08 -2.007,6.346 -2.38,9.8 z m -47.32,7 c 0,3.92 0.513,7.63 1.54,11.13 1.027,3.5 2.543,6.533 4.55,9.1 2.007,2.566 4.55,4.62 7.63,6.16 3.08,1.54 6.627,2.31 10.64,2.31 5.507,0 10.22,-1.447 14.14,-4.34 3.92,-2.894 6.533,-7 7.84,-12.32 h 9.38 c -1.027,3.453 -2.38,6.65 -4.06,9.59 -1.68,2.94 -3.78,5.506 -6.3,7.7 -2.52,2.193 -5.507,3.896 -8.96,5.11 -3.453,1.213 -7.467,1.82 -12.04,1.82 -5.787,0 -10.78,-0.98 -14.98,-2.94 -4.2,-1.96 -7.653,-4.644 -10.36,-8.05 -2.707,-3.407 -4.713,-7.42 -6.02,-12.04 -1.307,-4.62 -1.96,-9.59 -1.96,-14.91 0,-5.32 0.77,-10.314 2.31,-14.98 1.54,-4.667 3.733,-8.75 6.58,-12.25 2.847,-3.5 6.323,-6.254 10.43,-8.26 4.107,-2.007 8.773,-3.01 14,-3.01 9.987,0 17.827,3.43 23.52,10.29 5.693,6.86 8.493,16.823 8.4,29.89 z"
   fill="#ffffff"
   fill-rule="nonzero"
   opacity="1"
   stroke="none"
   id="path66" />
<path
   d="m 417.16,235.099 h -8.4 v -72.52 h 8.4 v 13.58 h 0.28 c 2.333,-5.787 5.343,-9.824 9.03,-12.11 3.687,-2.287 8.563,-3.43 14.63,-3.43 v 9.1 c -4.76,-0.094 -8.68,0.653 -11.76,2.24 -3.08,1.586 -5.53,3.733 -7.35,6.44 -1.82,2.706 -3.08,5.903 -3.78,9.59 -0.7,3.686 -1.05,7.536 -1.05,11.55 z"
   fill="#ffffff"
   fill-rule="nonzero"
   opacity="1"
   stroke="none"
   id="path67" />
<path
   d="m 459.86,212.419 c 1.307,6.253 3.663,10.663 7.07,13.23 3.407,2.566 8.283,3.85 14.63,3.85 3.08,0 5.74,-0.374 7.98,-1.12 2.24,-0.747 4.083,-1.75 5.53,-3.01 1.447,-1.26 2.543,-2.684 3.29,-4.27 0.747,-1.587 1.12,-3.267 1.12,-5.04 0,-3.547 -1.143,-6.184 -3.43,-7.91 -2.287,-1.727 -5.157,-3.08 -8.61,-4.06 -3.453,-0.98 -7.187,-1.82 -11.2,-2.52 -4.013,-0.7 -7.747,-1.75 -11.2,-3.15 -3.453,-1.4 -6.323,-3.407 -8.61,-6.02 -2.287,-2.614 -3.43,-6.3 -3.43,-11.06 0,-6.067 2.217,-11.037 6.65,-14.91 4.433,-3.874 10.71,-5.81 18.83,-5.81 7.84,0 14.21,1.75 19.11,5.25 4.9,3.5 7.863,9.356 8.89,17.57 h -8.54 c -0.747,-5.6 -2.87,-9.544 -6.37,-11.83 -3.5,-2.287 -7.91,-3.43 -13.23,-3.43 -5.32,0 -9.38,1.143 -12.18,3.43 -2.8,2.286 -4.2,5.296 -4.2,9.03 0,3.266 1.143,5.763 3.43,7.49 2.287,1.726 5.157,3.126 8.61,4.2 3.453,1.073 7.187,2.03 11.2,2.87 4.013,0.84 7.747,2.03 11.2,3.57 3.453,1.54 6.323,3.616 8.61,6.23 2.287,2.613 3.43,6.253 3.43,10.92 0,3.453 -0.747,6.51 -2.24,9.17 -1.493,2.66 -3.547,4.876 -6.16,6.65 -2.613,1.773 -5.717,3.103 -9.31,3.99 -3.593,0.886 -7.537,1.33 -11.83,1.33 -4.293,0 -8.097,-0.63 -11.41,-1.89 -3.313,-1.26 -6.137,-3.01 -8.47,-5.25 -2.333,-2.24 -4.153,-4.854 -5.46,-7.84 -1.307,-2.987 -2.053,-6.207 -2.24,-9.66 z"
   fill="#ffffff"
   fill-rule="nonzero"
   opacity="1"
   stroke="none"
   id="path68" />
<path
   d="m 526.22,235.099 v -72.52 h 8.4 v 72.52 z m -0.42,-88.34 v -12.46 h 9.24 v 12.46 z"
   fill="#ffffff"
   fill-rule="nonzero"
   opacity="1"
   stroke="none"
   id="path69" />
<path
   d="m 581.52,235.379 c -1.027,0.186 -2.38,0.513 -4.06,0.98 -1.68,0.466 -3.547,0.7 -5.6,0.7 -4.2,0 -7.397,-1.05 -9.59,-3.15 -2.193,-2.1 -3.29,-5.857 -3.29,-11.27 v -53.06 h -10.22 v -7 h 10.22 v -20.16 h 8.4 v 20.16 h 13.58 v 7 h -13.58 v 49.7 c 0,1.773 0.047,3.313 0.14,4.62 0.093,1.306 0.373,2.38 0.84,3.22 0.467,0.84 1.19,1.446 2.17,1.82 0.98,0.373 2.357,0.56 4.13,0.56 1.12,0 2.263,-0.094 3.43,-0.28 1.167,-0.187 2.31,-0.42 3.43,-0.7 z"
   fill="#ffffff"
   fill-rule="nonzero"
   opacity="1"
   stroke="none"
   id="path70" />
<path
   d="m 642.42,197.019 c -3.547,1.493 -7.14,2.473 -10.78,2.94 -3.64,0.466 -7.28,0.84 -10.92,1.12 -6.44,0.466 -11.457,1.913 -15.05,4.34 -3.593,2.426 -5.39,6.113 -5.39,11.06 0,2.24 0.443,4.176 1.33,5.81 0.887,1.633 2.053,2.986 3.5,4.06 1.447,1.073 3.127,1.866 5.04,2.38 1.913,0.513 3.85,0.77 5.81,0.77 3.36,0 6.627,-0.42 9.8,-1.26 3.173,-0.84 5.997,-2.124 8.47,-3.85 2.473,-1.727 4.457,-3.92 5.95,-6.58 1.493,-2.66 2.24,-5.81 2.24,-9.45 z m -14.14,-4.2 c 1.587,-0.187 3.477,-0.467 5.67,-0.84 2.193,-0.374 3.99,-0.887 5.39,-1.54 1.4,-0.654 2.263,-1.75 2.59,-3.29 0.327,-1.54 0.49,-2.964 0.49,-4.27 0,-4.294 -1.377,-7.817 -4.13,-10.57 -2.753,-2.754 -7.397,-4.13 -13.93,-4.13 -2.893,0 -5.553,0.256 -7.98,0.77 -2.427,0.513 -4.55,1.4 -6.37,2.66 -1.82,1.26 -3.313,2.94 -4.48,5.04 -1.167,2.1 -1.937,4.736 -2.31,7.91 h -8.54 c 0.28,-4.294 1.26,-7.957 2.94,-10.99 1.68,-3.034 3.85,-5.507 6.51,-7.42 2.66,-1.914 5.74,-3.314 9.24,-4.2 3.5,-0.887 7.21,-1.33 11.13,-1.33 3.64,0 7.07,0.396 10.29,1.19 3.22,0.793 6.02,2.053 8.4,3.78 2.38,1.726 4.247,4.036 5.6,6.93 1.353,2.893 2.03,6.44 2.03,10.64 v 39.48 c 0,3.266 0.583,5.343 1.75,6.23 1.167,0.886 3.523,0.676 7.07,-0.63 v 6.58 c -0.653,0.186 -1.61,0.466 -2.87,0.84 -1.26,0.373 -2.497,0.56 -3.71,0.56 -1.307,0 -2.567,-0.14 -3.78,-0.42 -1.4,-0.187 -2.52,-0.63 -3.36,-1.33 -0.84,-0.7 -1.517,-1.54 -2.03,-2.52 -0.513,-0.98 -0.863,-2.054 -1.05,-3.22 -0.187,-1.167 -0.28,-2.404 -0.28,-3.71 -3.547,3.92 -7.607,6.906 -12.18,8.96 -4.573,2.053 -9.52,3.08 -14.84,3.08 -3.173,0 -6.23,-0.42 -9.17,-1.26 -2.94,-0.84 -5.53,-2.147 -7.77,-3.92 -2.24,-1.774 -4.013,-3.944 -5.32,-6.51 -1.307,-2.567 -1.96,-5.624 -1.96,-9.17 0,-12.32 8.447,-19.6 25.34,-21.84 z m -19.32,-53.76 h 9.1 v 14.28 h -9.1 z m 22.26,0 h 9.1 v 14.28 h -9.1 z"
   fill="#ffffff"
   fill-rule="nonzero"
   opacity="1"
   stroke="none"
   id="path71" />
<path
   d="m 698.28,235.379 c -1.027,0.186 -2.38,0.513 -4.06,0.98 -1.68,0.466 -3.547,0.7 -5.6,0.7 -4.2,0 -7.397,-1.05 -9.59,-3.15 -2.193,-2.1 -3.29,-5.857 -3.29,-11.27 v -53.06 h -10.22 v -7 h 10.22 v -20.16 h 8.4 v 20.16 h 13.58 v 7 h -13.58 v 49.7 c 0,1.773 0.047,3.313 0.14,4.62 0.093,1.306 0.373,2.38 0.84,3.22 0.467,0.84 1.19,1.446 2.17,1.82 0.98,0.373 2.357,0.56 4.13,0.56 1.12,0 2.263,-0.094 3.43,-0.28 1.167,-0.187 2.31,-0.42 3.43,-0.7 z"
   fill="#ffffff"
   fill-rule="nonzero"
   opacity="1"
   stroke="none"
   id="path72" />
<path
   d="m 129.88,360.099 v -100.8 h 9.52 v 52.22 l 51.66,-52.22 h 10.78 l -39.76,40.18 46.76,60.62 h -11.62 l -42,-54.74 -15.82,15.82 v 38.92 z"
   fill="#ffffff"
   fill-rule="nonzero"
   opacity="1"
   stroke="none"
   id="path73" />
<path
   d="m 250.28,362.059 c -4.667,-0.094 -9.03,-0.934 -13.09,-2.52 -4.06,-1.587 -7.607,-3.967 -10.64,-7.14 -3.033,-3.174 -5.437,-7.14 -7.21,-11.9 -1.773,-4.76 -2.66,-10.314 -2.66,-16.66 0,-5.32 0.7,-10.29 2.1,-14.91 1.4,-4.62 3.5,-8.657 6.3,-12.11 2.8,-3.454 6.3,-6.184 10.5,-8.19 4.2,-2.007 9.1,-3.01 14.7,-3.01 5.693,0 10.64,1.003 14.84,3.01 4.2,2.006 7.7,4.713 10.5,8.12 2.8,3.406 4.877,7.443 6.23,12.11 1.353,4.666 2.03,9.66 2.03,14.98 0,5.786 -0.793,11.013 -2.38,15.68 -1.587,4.666 -3.85,8.68 -6.79,12.04 -2.94,3.36 -6.487,5.95 -10.64,7.77 -4.153,1.82 -8.75,2.73 -13.79,2.73 z m 24.64,-38.22 c 0,-4.294 -0.467,-8.307 -1.4,-12.04 -0.933,-3.734 -2.38,-6.977 -4.34,-9.73 -1.96,-2.754 -4.48,-4.924 -7.56,-6.51 -3.08,-1.587 -6.86,-2.38 -11.34,-2.38 -4.387,0 -8.143,0.863 -11.27,2.59 -3.127,1.726 -5.67,4.013 -7.63,6.86 -1.96,2.846 -3.407,6.113 -4.34,9.8 -0.933,3.686 -1.4,7.49 -1.4,11.41 0,4.48 0.537,8.61 1.61,12.39 1.073,3.78 2.637,7.023 4.69,9.73 2.053,2.706 4.62,4.806 7.7,6.3 3.08,1.493 6.627,2.24 10.64,2.24 4.387,0 8.143,-0.864 11.27,-2.59 3.127,-1.727 5.67,-4.037 7.63,-6.93 1.96,-2.894 3.407,-6.16 4.34,-9.8 0.933,-3.64 1.4,-7.42 1.4,-11.34 z"
   fill="#ffffff"
   fill-rule="nonzero"
   opacity="1"
   stroke="none"
   id="path74" />
<path
   d="m 307.68,360.099 h -8.4 v -72.52 h 8.4 v 10.08 c 3.36,-3.547 6.837,-6.44 10.43,-8.68 3.593,-2.24 7.91,-3.36 12.95,-3.36 4.48,0 8.633,0.77 12.46,2.31 3.827,1.54 7.047,4.223 9.66,8.05 1.773,2.613 2.823,5.296 3.15,8.05 0.327,2.753 0.49,5.623 0.49,8.61 v 47.46 h -8.4 v -47.32 c 0,-6.534 -1.447,-11.434 -4.34,-14.7 -2.893,-3.267 -7.7,-4.9 -14.42,-4.9 -2.613,0 -4.993,0.396 -7.14,1.19 -2.147,0.793 -4.083,1.843 -5.81,3.15 -1.727,1.306 -3.197,2.8 -4.41,4.48 -1.213,1.68 -2.147,3.453 -2.8,5.32 -0.84,2.333 -1.353,4.573 -1.54,6.72 -0.187,2.146 -0.28,4.48 -0.28,7 z"
   fill="#ffffff"
   fill-rule="nonzero"
   opacity="1"
   stroke="none"
   id="path75" />
<path
   d="m 382.02,337.419 c 1.307,6.253 3.663,10.663 7.07,13.23 3.407,2.566 8.283,3.85 14.63,3.85 3.08,0 5.74,-0.374 7.98,-1.12 2.24,-0.747 4.083,-1.75 5.53,-3.01 1.447,-1.26 2.543,-2.684 3.29,-4.27 0.747,-1.587 1.12,-3.267 1.12,-5.04 0,-3.547 -1.143,-6.184 -3.43,-7.91 -2.287,-1.727 -5.157,-3.08 -8.61,-4.06 -3.453,-0.98 -7.187,-1.82 -11.2,-2.52 -4.013,-0.7 -7.747,-1.75 -11.2,-3.15 -3.453,-1.4 -6.323,-3.407 -8.61,-6.02 -2.287,-2.614 -3.43,-6.3 -3.43,-11.06 0,-6.067 2.217,-11.037 6.65,-14.91 4.433,-3.874 10.71,-5.81 18.83,-5.81 7.84,0 14.21,1.75 19.11,5.25 4.9,3.5 7.863,9.356 8.89,17.57 h -8.54 c -0.747,-5.6 -2.87,-9.544 -6.37,-11.83 -3.5,-2.287 -7.91,-3.43 -13.23,-3.43 -5.32,0 -9.38,1.143 -12.18,3.43 -2.8,2.286 -4.2,5.296 -4.2,9.03 0,3.266 1.143,5.763 3.43,7.49 2.287,1.726 5.157,3.126 8.61,4.2 3.453,1.073 7.187,2.03 11.2,2.87 4.013,0.84 7.747,2.03 11.2,3.57 3.453,1.54 6.323,3.616 8.61,6.23 2.287,2.613 3.43,6.253 3.43,10.92 0,3.453 -0.747,6.51 -2.24,9.17 -1.493,2.66 -3.547,4.876 -6.16,6.65 -2.613,1.773 -5.717,3.103 -9.31,3.99 -3.593,0.886 -7.537,1.33 -11.83,1.33 -4.293,0 -8.097,-0.63 -11.41,-1.89 -3.313,-1.26 -6.137,-3.01 -8.47,-5.25 -2.333,-2.24 -4.153,-4.854 -5.46,-7.84 -1.307,-2.987 -2.053,-6.207 -2.24,-9.66 z"
   fill="#ffffff"
   fill-rule="nonzero"
   opacity="1"
   stroke="none"
   id="path76" />
<path
   d="m 472.6,360.379 c -1.027,0.186 -2.38,0.513 -4.06,0.98 -1.68,0.466 -3.547,0.7 -5.6,0.7 -4.2,0 -7.397,-1.05 -9.59,-3.15 -2.193,-2.1 -3.29,-5.857 -3.29,-11.27 v -53.06 h -10.22 v -7 h 10.22 v -20.16 h 8.4 v 20.16 h 13.58 v 7 h -13.58 v 49.7 c 0,1.773 0.047,3.313 0.14,4.62 0.093,1.306 0.373,2.38 0.84,3.22 0.467,0.84 1.19,1.446 2.17,1.82 0.98,0.373 2.357,0.56 4.13,0.56 1.12,0 2.263,-0.094 3.43,-0.28 1.167,-0.187 2.31,-0.42 3.43,-0.7 z"
   fill="#ffffff"
   fill-rule="nonzero"
   opacity="1"
   stroke="none"
   id="path77" />
<path
   d="m 533.5,322.019 c -3.547,1.493 -7.14,2.473 -10.78,2.94 -3.64,0.466 -7.28,0.84 -10.92,1.12 -6.44,0.466 -11.457,1.913 -15.05,4.34 -3.593,2.426 -5.39,6.113 -5.39,11.06 0,2.24 0.443,4.176 1.33,5.81 0.887,1.633 2.053,2.986 3.5,4.06 1.447,1.073 3.127,1.866 5.04,2.38 1.913,0.513 3.85,0.77 5.81,0.77 3.36,0 6.627,-0.42 9.8,-1.26 3.173,-0.84 5.997,-2.124 8.47,-3.85 2.473,-1.727 4.457,-3.92 5.95,-6.58 1.493,-2.66 2.24,-5.81 2.24,-9.45 z m -14.14,-4.2 c 1.587,-0.187 3.477,-0.467 5.67,-0.84 2.193,-0.374 3.99,-0.887 5.39,-1.54 1.4,-0.654 2.263,-1.75 2.59,-3.29 0.327,-1.54 0.49,-2.964 0.49,-4.27 0,-4.294 -1.377,-7.817 -4.13,-10.57 -2.753,-2.754 -7.397,-4.13 -13.93,-4.13 -2.893,0 -5.553,0.256 -7.98,0.77 -2.427,0.513 -4.55,1.4 -6.37,2.66 -1.82,1.26 -3.313,2.94 -4.48,5.04 -1.167,2.1 -1.937,4.736 -2.31,7.91 h -8.54 c 0.28,-4.294 1.26,-7.957 2.94,-10.99 1.68,-3.034 3.85,-5.507 6.51,-7.42 2.66,-1.914 5.74,-3.314 9.24,-4.2 3.5,-0.887 7.21,-1.33 11.13,-1.33 3.64,0 7.07,0.396 10.29,1.19 3.22,0.793 6.02,2.053 8.4,3.78 2.38,1.726 4.247,4.036 5.6,6.93 1.353,2.893 2.03,6.44 2.03,10.64 v 39.48 c 0,3.266 0.583,5.343 1.75,6.23 1.167,0.886 3.523,0.676 7.07,-0.63 v 6.58 c -0.653,0.186 -1.61,0.466 -2.87,0.84 -1.26,0.373 -2.497,0.56 -3.71,0.56 -1.307,0 -2.567,-0.14 -3.78,-0.42 -1.4,-0.187 -2.52,-0.63 -3.36,-1.33 -0.84,-0.7 -1.517,-1.54 -2.03,-2.52 -0.513,-0.98 -0.863,-2.054 -1.05,-3.22 -0.187,-1.167 -0.28,-2.404 -0.28,-3.71 -3.547,3.92 -7.607,6.906 -12.18,8.96 -4.573,2.053 -9.52,3.08 -14.84,3.08 -3.173,0 -6.23,-0.42 -9.17,-1.26 -2.94,-0.84 -5.53,-2.147 -7.77,-3.92 -2.24,-1.774 -4.013,-3.944 -5.32,-6.51 -1.307,-2.567 -1.96,-5.624 -1.96,-9.17 0,-12.32 8.447,-19.6 25.34,-21.84 z"
   fill="#ffffff"
   fill-rule="nonzero"
   opacity="1"
   stroke="none"
   id="path78" />
<path
   d="m 572.28,360.099 h -8.4 v -72.52 h 8.4 v 10.08 c 3.36,-3.547 6.837,-6.44 10.43,-8.68 3.593,-2.24 7.91,-3.36 12.95,-3.36 4.48,0 8.633,0.77 12.46,2.31 3.827,1.54 7.047,4.223 9.66,8.05 1.773,2.613 2.823,5.296 3.15,8.05 0.327,2.753 0.49,5.623 0.49,8.61 v 47.46 h -8.4 v -47.32 c 0,-6.534 -1.447,-11.434 -4.34,-14.7 -2.893,-3.267 -7.7,-4.9 -14.42,-4.9 -2.613,0 -4.993,0.396 -7.14,1.19 -2.147,0.793 -4.083,1.843 -5.81,3.15 -1.727,1.306 -3.197,2.8 -4.41,4.48 -1.213,1.68 -2.147,3.453 -2.8,5.32 -0.84,2.333 -1.353,4.573 -1.54,6.72 -0.187,2.146 -0.28,4.48 -0.28,7 z"
   fill="#ffffff"
   fill-rule="nonzero"
   opacity="1"
   stroke="none"
   id="path79" />
<path
   d="m 636.26,360.099 v -7.42 l 48.16,-58.1 h -44.94 v -7 h 55.72 v 7.42 l -48.16,58.1 h 49.98 v 7 z"
   fill="#ffffff"
   fill-rule="nonzero"
   opacity="1"
   stroke="none"
   id="path80" />
</g>
</g>
</svg>
