<?xml version="1.0" encoding="UTF-8" standalone="no"?>
<!DOCTYPE svg PUBLIC "-//W3C//DTD SVG 1.1//EN" "http://www.w3.org/Graphics/SVG/1.1/DTD/svg11.dtd">
<!-- Created with Vectornator (http://vectornator.io/) -->
<svg height="518.0pt" stroke-miterlimit="10" style="fill-rule:nonzero;clip-rule:evenodd;stroke-linecap:round;stroke-linejoin:round;" version="1.1" viewBox="0 0 1269 518" width="1269.0pt" xml:space="preserve" xmlns="http://www.w3.org/2000/svg" xmlns:vectornator="http://vectornator.io" xmlns:xlink="http://www.w3.org/1999/xlink">
<defs/>
<g id="Layer-2" vectornator:layerName="Layer 2">
<path d="M776.373 23.3902L1246.29 23.3902L1246.29 494.608L776.373 494.608L776.373 23.3902Z" fill="#000000" fill-opacity="0" fill-rule="nonzero" opacity="1" stroke="#000000" stroke-linecap="butt" stroke-linejoin="round" stroke-width="5" vectornator:layerName="Rectangle 1"/>
<path d="M1070.09 254.515L1098.05 182.301L1088.05 257.209L1098.44 182.943L1107.67 258.492L1098.57 181.788L1128.32 257.337C1128.32 257.337 1097.77 182.457 1098.25 182.283C1098.74 182.109 1098.7 181.41 1098.47 181.73C1098.24 182.05 1097.69 183.413 1098.48 183.004" fill="#000000" fill-opacity="0" fill-rule="nonzero" opacity="1" stroke="#000000" stroke-linecap="butt" stroke-linejoin="round" stroke-width="5" vectornator:layerName="Curve 8"/>
<path d="M1006.53 144.229L981.02 162.141L955.723 143.579" fill="none" opacity="1" stroke="#000000" stroke-linecap="butt" stroke-linejoin="round" stroke-width="5" vectornator:layerName="Curve 4"/>
<path d="M1128.81 160.461L1008.61 160.461" fill="none" opacity="1" stroke="#000000" stroke-linecap="butt" stroke-linejoin="round" stroke-width="5" vectornator:layerName="Line 45"/>
<path d="M836.699 160.461L776.373 160.461" fill="none" opacity="1" stroke="#000000" stroke-linecap="butt" stroke-linejoin="round" stroke-width="5" vectornator:layerName="Line 36"/>
<path d="M1246.29 182.057L836.699 182.057" fill="none" opacity="1" stroke="#000000" stroke-linecap="butt" stroke-linejoin="round" stroke-width="5" vectornator:layerName="Line 37"/>
<path d="M1246.29 318.453L1011.33 318.453" fill="none" opacity="1" stroke="#000000" stroke-linecap="butt" stroke-linejoin="round" stroke-width="5" vectornator:layerName="Line 38"/>
<path d="M1187.68 347.351L1008.56 347.351" fill="none" opacity="1" stroke="#000000" stroke-linecap="butt" stroke-linejoin="round" stroke-width="5" vectornator:layerName="Line 39"/>
<path d="M836.699 43.4663L922.861 101.964" fill="none" opacity="1" stroke="#000000" stroke-linecap="butt" stroke-linejoin="round" stroke-width="5" vectornator:layerName="Line 1"/>
<path d="M922.861 62.0863L862.514 62.0863" fill="none" opacity="1" stroke="#000000" stroke-linecap="butt" stroke-linejoin="round" stroke-width="5" vectornator:layerName="Line 34"/>
<path d="M954.094 160.461L895.235 160.461" fill="none" opacity="1" stroke="#000000" stroke-linecap="butt" stroke-linejoin="round" stroke-width="5" vectornator:layerName="Line 46"/>
<path d="M1156.32 364.847L1156.32 423.867" fill="none" opacity="1" stroke="#000000" stroke-linecap="butt" stroke-linejoin="round" stroke-width="5" vectornator:layerName="Line 21"/>
<path d="M1099.42 363.989L1099.42 422.997" fill="none" opacity="1" stroke="#000000" stroke-linecap="butt" stroke-linejoin="round" stroke-width="5" vectornator:layerName="Line 22"/>
<path d="M1069.42 238.475L1069.42 491.219" fill="none" opacity="1" stroke="#000000" stroke-linecap="butt" stroke-linejoin="round" stroke-width="5" vectornator:layerName="Line 15"/>
<path d="M1088.41 259L1088.41 462.224" fill="none" opacity="1" stroke="#000000" stroke-linecap="butt" stroke-linejoin="round" stroke-width="5" vectornator:layerName="Line 16"/>
<path d="M954.115 80.634L954.115 258.048" fill="none" opacity="1" stroke="#000000" stroke-linecap="butt" stroke-linejoin="round" stroke-width="5" vectornator:layerName="Line 2"/>
<path d="M922.861 43.4663L922.861 160.461" fill="none" opacity="1" stroke="#000000" stroke-linecap="butt" stroke-linejoin="round" stroke-width="5" vectornator:layerName="Line 1"/>
<path d="M1008.61 23.3902L1008.61 494.608" fill="none" opacity="1" stroke="#000000" stroke-linecap="butt" stroke-linejoin="round" stroke-width="5" vectornator:layerName="Line 2"/>
<path d="M1130.12 23.3902L1130.12 200.557" fill="none" opacity="1" stroke="#000000" stroke-linecap="butt" stroke-linejoin="round" stroke-width="5" vectornator:layerName="Line 3"/>
<path d="M836.699 43.4663L836.699 200.557" fill="none" opacity="1" stroke="#000000" stroke-linecap="butt" stroke-linejoin="round" stroke-width="5" vectornator:layerName="Line 4"/>
<path d="M805.445 23.3902L806.289 160.461" fill="none" opacity="1" stroke="#000000" stroke-linecap="butt" stroke-linejoin="round" stroke-width="5" vectornator:layerName="Line 5"/>
<path d="M836.699 462.198L836.699 494.608" fill="none" opacity="1" stroke="#000000" stroke-linecap="butt" stroke-linejoin="round" stroke-width="5" vectornator:layerName="Line 6"/>
<path d="M954.115 374.175L954.115 494.608" fill="none" opacity="1" stroke="#000000" stroke-linecap="butt" stroke-linejoin="round" stroke-width="5" vectornator:layerName="Line 7"/>
<path d="M1069.42 141.454L1069.42 200.611" fill="none" opacity="1" stroke="#000000" stroke-linecap="butt" stroke-linejoin="round" stroke-width="5" vectornator:layerName="Line 8"/>
<path d="M1187.68 142.299L1187.68 494.608" fill="none" opacity="1" stroke="#000000" stroke-linecap="butt" stroke-linejoin="round" stroke-width="5" vectornator:layerName="Line 9"/>
<path d="M1030.81 296.608L1030.41 462.198" fill="none" opacity="1" stroke="#000000" stroke-linecap="butt" stroke-linejoin="round" stroke-width="5" vectornator:layerName="Line 10"/>
<path d="M1050.28 297.006L1051.08 462.198" fill="none" opacity="1" stroke="#000000" stroke-linecap="butt" stroke-linejoin="round" stroke-width="5" vectornator:layerName="Line 11"/>
<path d="M1041.18 363.989L1041.18 422.997" fill="none" opacity="1" stroke="#000000" stroke-linecap="butt" stroke-linejoin="round" stroke-width="5" vectornator:layerName="Line 12"/>
<path d="M895.235 23.3902L895.235 494.61" fill="none" opacity="1" stroke="#000000" stroke-linecap="butt" stroke-linejoin="round" stroke-width="5" vectornator:layerName="Line 13"/>
<path d="M1099.42 160.461L1099.42 182.057" fill="none" opacity="1" stroke="#000000" stroke-linecap="butt" stroke-linejoin="round" stroke-width="5" vectornator:layerName="Line 14"/>
<path d="M1109.06 258.044L1109.06 462.198" fill="none" opacity="1" stroke="#000000" stroke-linecap="butt" stroke-linejoin="round" stroke-width="5" vectornator:layerName="Line 17"/>
<path d="M1130.12 238.475L1130.12 494.61" fill="none" opacity="1" stroke="#000000" stroke-linecap="butt" stroke-linejoin="round" stroke-width="5" vectornator:layerName="Line 18"/>
<path d="M1146.22 297.006L1146.22 462.229" fill="none" opacity="1" stroke="#000000" stroke-linecap="butt" stroke-linejoin="round" stroke-width="5" vectornator:layerName="Line 19"/>
<path d="M1167.79 297.006L1167.79 462.198" fill="none" opacity="1" stroke="#000000" stroke-linecap="butt" stroke-linejoin="round" stroke-width="5" vectornator:layerName="Line 20"/>
<path d="M1246.29 141.454L776.373 141.454" fill="none" opacity="1" stroke="#000000" stroke-linecap="butt" stroke-linejoin="round" stroke-width="5" vectornator:layerName="Line 23"/>
<path d="M1246.29 200.557L776.373 200.557" fill="none" opacity="1" stroke="#000000" stroke-linecap="butt" stroke-linejoin="round" stroke-width="5" vectornator:layerName="Line 24"/>
<path d="M1246.29 259L776.373 259" fill="none" opacity="1" stroke="#000000" stroke-linecap="butt" stroke-linejoin="round" stroke-width="5" vectornator:layerName="Line 25"/>
<path d="M1246.29 374.175L776.344 374.175" fill="none" opacity="1" stroke="#000000" stroke-linecap="butt" stroke-linejoin="round" stroke-width="5" vectornator:layerName="Line 26"/>
<path d="M1246.29 160.461L1187.68 160.461" fill="none" opacity="1" stroke="#000000" stroke-linecap="butt" stroke-linejoin="round" stroke-width="5" vectornator:layerName="Line 44"/>
<path d="M1246.29 462.229L776.373 462.229" fill="none" opacity="1" stroke="#000000" stroke-linecap="butt" stroke-linejoin="round" stroke-width="5" vectornator:layerName="Line 27"/>
<path d="M1008.61 122.012L776.373 122.012" fill="none" opacity="1" stroke="#000000" stroke-linecap="butt" stroke-linejoin="round" stroke-width="5" vectornator:layerName="Line 28"/>
<path d="M922.861 101.964L776.373 101.964" fill="none" opacity="1" stroke="#000000" stroke-linecap="butt" stroke-linejoin="round" stroke-width="5" vectornator:layerName="Line 29"/>
<path d="M836.699 80.634L776.373 80.634" fill="none" opacity="1" stroke="#000000" stroke-linecap="butt" stroke-linejoin="round" stroke-width="5" vectornator:layerName="Line 30"/>
<path d="M836.699 62.0863L776.34 62.0863" fill="none" opacity="1" stroke="#000000" stroke-linecap="butt" stroke-linejoin="round" stroke-width="5" vectornator:layerName="Line 31"/>
<path d="M805.445 43.4663L776.373 43.4663" fill="none" opacity="1" stroke="#000000" stroke-linecap="butt" stroke-linejoin="round" stroke-width="5" vectornator:layerName="Line 32"/>
<path d="M925.381 43.4663L834.283 43.4663" fill="none" opacity="1" stroke="#000000" stroke-linecap="butt" stroke-linejoin="round" stroke-width="5" vectornator:layerName="Line 33"/>
<path d="M922.861 80.634L892.492 80.634" fill="none" opacity="1" stroke="#000000" stroke-linecap="butt" stroke-linejoin="round" stroke-width="5" vectornator:layerName="Line 35"/>
<path d="M1246.29 434.391L892.492 434.391" fill="none" opacity="1" stroke="#000000" stroke-linecap="butt" stroke-linejoin="round" stroke-width="5" vectornator:layerName="Line 40"/>
<path d="M1008.56 238.475L954.115 238.475" fill="none" opacity="1" stroke="#000000" stroke-linecap="butt" stroke-linejoin="round" stroke-width="5" vectornator:layerName="Line 41"/>
<path d="M1246.29 220.802L1187.68 220.802" fill="none" opacity="1" stroke="#000000" stroke-linecap="butt" stroke-linejoin="round" stroke-width="5" vectornator:layerName="Line 42"/>
<path d="M1008.56 219.29L954.094 219.29" fill="none" opacity="1" stroke="#000000" stroke-linecap="butt" stroke-linejoin="round" stroke-width="5" vectornator:layerName="Line 43"/>
<path d="M1008.56 122.012L954.094 85.3006" fill="none" opacity="1" stroke="#000000" stroke-linecap="butt" stroke-linejoin="round" stroke-width="5" vectornator:layerName="Line 47"/>
<path d="M1005.96 143.589" fill="none" opacity="1" stroke="#000000" stroke-linecap="butt" stroke-linejoin="round" stroke-width="5" vectornator:layerName="Curve 1"/>
<path d="M1181.72 142.104L1156.21 160.016L1130.92 141.454" fill="none" opacity="1" stroke="#000000" stroke-linecap="butt" stroke-linejoin="round" stroke-width="5" vectornator:layerName="Curve 2"/>
<path d="M892.492 142.104L864.688 160.016L837.113 141.454" fill="none" opacity="1" stroke="#000000" stroke-linecap="butt" stroke-linejoin="round" stroke-width="5" vectornator:layerName="Curve 3"/>
<path d="M1188.62 371.855L1215.44 319.285L1243.34 370.998" fill="none" opacity="1" stroke="#000000" stroke-linecap="butt" stroke-linejoin="round" stroke-width="5" vectornator:layerName="Curve 5"/>
<path d="M895.5 434.391L923.111 374.175L951.827 433.41" fill="none" opacity="1" stroke="#000000" stroke-linecap="butt" stroke-linejoin="round" stroke-width="5" vectornator:layerName="Curve 6"/>
<path d="M954.115 434.391L980.806 374.175L1008.56 433.41" fill="none" opacity="1" stroke="#000000" stroke-linecap="butt" stroke-linejoin="round" stroke-width="5" vectornator:layerName="Curve 7"/>
<path d="M1008.56 488.051C1008.56 488.051 985.461 451.4 954.094 483.861" fill="none" opacity="1" stroke="#000000" stroke-linecap="butt" stroke-linejoin="round" stroke-width="5" vectornator:layerName="Curve 9"/>
<path d="M954.094 485.511C954.094 485.511 929.242 454.147 895.5 481.925" fill="none" opacity="1" stroke="#000000" stroke-linecap="butt" stroke-linejoin="round" stroke-width="5" vectornator:layerName="Curve 10"/>
<path d="M895.235 485.511C895.235 485.511 870.407 454.147 836.699 481.925" fill="none" opacity="1" stroke="#000000" stroke-linecap="butt" stroke-linejoin="round" stroke-width="5" vectornator:layerName="Curve 11"/>
<path d="M837.113 485.511C837.113 485.511 811.35 454.147 776.373 481.925" fill="none" opacity="1" stroke="#000000" stroke-linecap="butt" stroke-linejoin="round" stroke-width="5" vectornator:layerName="Curve 12"/>
<g fill="#000000" opacity="1" stroke="none" vectornator:layerName="Text 1">
<path d="M51.9 134.299L61.42 134.299L61.42 194.359C61.42 206.865 63.7533 215.872 68.42 221.379C73.0867 226.885 80.6 229.639 90.96 229.639C96.3733 229.639 100.97 228.915 104.75 227.469C108.53 226.022 111.587 223.829 113.92 220.889C116.253 217.949 117.933 214.285 118.96 209.899C119.987 205.512 120.5 200.332 120.5 194.359L120.5 134.299L130.02 134.299L130.02 197.159C130.02 210.319 126.777 220.375 120.29 227.329C113.803 234.282 104.027 237.759 90.96 237.759C77.8 237.759 68 234.212 61.56 227.119C55.12 220.025 51.9 210.039 51.9 197.159L51.9 134.299Z"/>
<path d="M159.98 235.099L151.58 235.099L151.58 162.579L159.98 162.579L159.98 172.659C163.34 169.112 166.817 166.219 170.41 163.979C174.003 161.739 178.32 160.619 183.36 160.619C187.84 160.619 191.993 161.389 195.82 162.929C199.647 164.469 202.867 167.152 205.48 170.979C207.253 173.592 208.303 176.275 208.63 179.029C208.957 181.782 209.12 184.652 209.12 187.639L209.12 235.099L200.72 235.099L200.72 187.779C200.72 181.245 199.273 176.345 196.38 173.079C193.487 169.812 188.68 168.179 181.96 168.179C179.347 168.179 176.967 168.575 174.82 169.369C172.673 170.162 170.737 171.212 169.01 172.519C167.283 173.825 165.813 175.319 164.6 176.999C163.387 178.679 162.453 180.452 161.8 182.319C160.96 184.652 160.447 186.892 160.26 189.039C160.073 191.185 159.98 193.519 159.98 196.039L159.98 235.099Z"/>
<path d="M230.68 235.099L230.68 162.579L239.08 162.579L239.08 235.099L230.68 235.099ZM230.26 146.759L230.26 134.299L239.5 134.299L239.5 146.759L230.26 146.759Z"/>
<path d="M252.8 162.579L261.9 162.579L285.42 224.739L308.94 162.579L318.04 162.579L289.9 235.099L280.52 235.099L252.8 162.579Z"/>
<path d="M383 193.799C383 190.252 382.51 186.915 381.53 183.789C380.55 180.662 379.103 177.955 377.19 175.669C375.277 173.382 372.873 171.562 369.98 170.209C367.087 168.855 363.773 168.179 360.04 168.179C356.307 168.179 353.017 168.879 350.17 170.279C347.323 171.679 344.897 173.545 342.89 175.879C340.883 178.212 339.273 180.919 338.06 183.999C336.847 187.079 336.053 190.345 335.68 193.799L383 193.799ZM335.68 200.799C335.68 204.719 336.193 208.429 337.22 211.929C338.247 215.429 339.763 218.462 341.77 221.029C343.777 223.595 346.32 225.649 349.4 227.189C352.48 228.729 356.027 229.499 360.04 229.499C365.547 229.499 370.26 228.052 374.18 225.159C378.1 222.265 380.713 218.159 382.02 212.839L391.4 212.839C390.373 216.292 389.02 219.489 387.34 222.429C385.66 225.369 383.56 227.935 381.04 230.129C378.52 232.322 375.533 234.025 372.08 235.239C368.627 236.452 364.613 237.059 360.04 237.059C354.253 237.059 349.26 236.079 345.06 234.119C340.86 232.159 337.407 229.475 334.7 226.069C331.993 222.662 329.987 218.649 328.68 214.029C327.373 209.409 326.72 204.439 326.72 199.119C326.72 193.799 327.49 188.805 329.03 184.139C330.57 179.472 332.763 175.389 335.61 171.889C338.457 168.389 341.933 165.635 346.04 163.629C350.147 161.622 354.813 160.619 360.04 160.619C370.027 160.619 377.867 164.049 383.56 170.909C389.253 177.769 392.053 187.732 391.96 200.799L335.68 200.799Z"/>
<path d="M417.16 235.099L408.76 235.099L408.76 162.579L417.16 162.579L417.16 176.159L417.44 176.159C419.773 170.372 422.783 166.335 426.47 164.049C430.157 161.762 435.033 160.619 441.1 160.619L441.1 169.719C436.34 169.625 432.42 170.372 429.34 171.959C426.26 173.545 423.81 175.692 421.99 178.399C420.17 181.105 418.91 184.302 418.21 187.989C417.51 191.675 417.16 195.525 417.16 199.539L417.16 235.099Z"/>
<path d="M459.86 212.419C461.167 218.672 463.523 223.082 466.93 225.649C470.337 228.215 475.213 229.499 481.56 229.499C484.64 229.499 487.3 229.125 489.54 228.379C491.78 227.632 493.623 226.629 495.07 225.369C496.517 224.109 497.613 222.685 498.36 221.099C499.107 219.512 499.48 217.832 499.48 216.059C499.48 212.512 498.337 209.875 496.05 208.149C493.763 206.422 490.893 205.069 487.44 204.089C483.987 203.109 480.253 202.269 476.24 201.569C472.227 200.869 468.493 199.819 465.04 198.419C461.587 197.019 458.717 195.012 456.43 192.399C454.143 189.785 453 186.099 453 181.339C453 175.272 455.217 170.302 459.65 166.429C464.083 162.555 470.36 160.619 478.48 160.619C486.32 160.619 492.69 162.369 497.59 165.869C502.49 169.369 505.453 175.225 506.48 183.439L497.94 183.439C497.193 177.839 495.07 173.895 491.57 171.609C488.07 169.322 483.66 168.179 478.34 168.179C473.02 168.179 468.96 169.322 466.16 171.609C463.36 173.895 461.96 176.905 461.96 180.639C461.96 183.905 463.103 186.402 465.39 188.129C467.677 189.855 470.547 191.255 474 192.329C477.453 193.402 481.187 194.359 485.2 195.199C489.213 196.039 492.947 197.229 496.4 198.769C499.853 200.309 502.723 202.385 505.01 204.999C507.297 207.612 508.44 211.252 508.44 215.919C508.44 219.372 507.693 222.429 506.2 225.089C504.707 227.749 502.653 229.965 500.04 231.739C497.427 233.512 494.323 234.842 490.73 235.729C487.137 236.615 483.193 237.059 478.9 237.059C474.607 237.059 470.803 236.429 467.49 235.169C464.177 233.909 461.353 232.159 459.02 229.919C456.687 227.679 454.867 225.065 453.56 222.079C452.253 219.092 451.507 215.872 451.32 212.419L459.86 212.419Z"/>
<path d="M526.22 235.099L526.22 162.579L534.62 162.579L534.62 235.099L526.22 235.099ZM525.8 146.759L525.8 134.299L535.04 134.299L535.04 146.759L525.8 146.759Z"/>
<path d="M581.52 235.379C580.493 235.565 579.14 235.892 577.46 236.359C575.78 236.825 573.913 237.059 571.86 237.059C567.66 237.059 564.463 236.009 562.27 233.909C560.077 231.809 558.98 228.052 558.98 222.639L558.98 169.579L548.76 169.579L548.76 162.579L558.98 162.579L558.98 142.419L567.38 142.419L567.38 162.579L580.96 162.579L580.96 169.579L567.38 169.579L567.38 219.279C567.38 221.052 567.427 222.592 567.52 223.899C567.613 225.205 567.893 226.279 568.36 227.119C568.827 227.959 569.55 228.565 570.53 228.939C571.51 229.312 572.887 229.499 574.66 229.499C575.78 229.499 576.923 229.405 578.09 229.219C579.257 229.032 580.4 228.799 581.52 228.519L581.52 235.379Z"/>
<path d="M642.42 197.019C638.873 198.512 635.28 199.492 631.64 199.959C628 200.425 624.36 200.799 620.72 201.079C614.28 201.545 609.263 202.992 605.67 205.419C602.077 207.845 600.28 211.532 600.28 216.479C600.28 218.719 600.723 220.655 601.61 222.289C602.497 223.922 603.663 225.275 605.11 226.349C606.557 227.422 608.237 228.215 610.15 228.729C612.063 229.242 614 229.499 615.96 229.499C619.32 229.499 622.587 229.079 625.76 228.239C628.933 227.399 631.757 226.115 634.23 224.389C636.703 222.662 638.687 220.469 640.18 217.809C641.673 215.149 642.42 211.999 642.42 208.359L642.42 197.019ZM628.28 192.819C629.867 192.632 631.757 192.352 633.95 191.979C636.143 191.605 637.94 191.092 639.34 190.439C640.74 189.785 641.603 188.689 641.93 187.149C642.257 185.609 642.42 184.185 642.42 182.879C642.42 178.585 641.043 175.062 638.29 172.309C635.537 169.555 630.893 168.179 624.36 168.179C621.467 168.179 618.807 168.435 616.38 168.949C613.953 169.462 611.83 170.349 610.01 171.609C608.19 172.869 606.697 174.549 605.53 176.649C604.363 178.749 603.593 181.385 603.22 184.559L594.68 184.559C594.96 180.265 595.94 176.602 597.62 173.569C599.3 170.535 601.47 168.062 604.13 166.149C606.79 164.235 609.87 162.835 613.37 161.949C616.87 161.062 620.58 160.619 624.5 160.619C628.14 160.619 631.57 161.015 634.79 161.809C638.01 162.602 640.81 163.862 643.19 165.589C645.57 167.315 647.437 169.625 648.79 172.519C650.143 175.412 650.82 178.959 650.82 183.159L650.82 222.639C650.82 225.905 651.403 227.982 652.57 228.869C653.737 229.755 656.093 229.545 659.64 228.239L659.64 234.819C658.987 235.005 658.03 235.285 656.77 235.659C655.51 236.032 654.273 236.219 653.06 236.219C651.753 236.219 650.493 236.079 649.28 235.799C647.88 235.612 646.76 235.169 645.92 234.469C645.08 233.769 644.403 232.929 643.89 231.949C643.377 230.969 643.027 229.895 642.84 228.729C642.653 227.562 642.56 226.325 642.56 225.019C639.013 228.939 634.953 231.925 630.38 233.979C625.807 236.032 620.86 237.059 615.54 237.059C612.367 237.059 609.31 236.639 606.37 235.799C603.43 234.959 600.84 233.652 598.6 231.879C596.36 230.105 594.587 227.935 593.28 225.369C591.973 222.802 591.32 219.745 591.32 216.199C591.32 203.879 599.767 196.599 616.66 194.359L628.28 192.819ZM608.96 139.059L618.06 139.059L618.06 153.339L608.96 153.339L608.96 139.059ZM631.22 139.059L640.32 139.059L640.32 153.339L631.22 153.339L631.22 139.059Z"/>
<path d="M698.28 235.379C697.253 235.565 695.9 235.892 694.22 236.359C692.54 236.825 690.673 237.059 688.62 237.059C684.42 237.059 681.223 236.009 679.03 233.909C676.837 231.809 675.74 228.052 675.74 222.639L675.74 169.579L665.52 169.579L665.52 162.579L675.74 162.579L675.74 142.419L684.14 142.419L684.14 162.579L697.72 162.579L697.72 169.579L684.14 169.579L684.14 219.279C684.14 221.052 684.187 222.592 684.28 223.899C684.373 225.205 684.653 226.279 685.12 227.119C685.587 227.959 686.31 228.565 687.29 228.939C688.27 229.312 689.647 229.499 691.42 229.499C692.54 229.499 693.683 229.405 694.85 229.219C696.017 229.032 697.16 228.799 698.28 228.519L698.28 235.379Z"/>
<path d="M129.88 360.099L129.88 259.299L139.4 259.299L139.4 311.519L191.06 259.299L201.84 259.299L162.08 299.479L208.84 360.099L197.22 360.099L155.22 305.359L139.4 321.179L139.4 360.099L129.88 360.099Z"/>
<path d="M250.28 362.059C245.613 361.965 241.25 361.125 237.19 359.539C233.13 357.952 229.583 355.572 226.55 352.399C223.517 349.225 221.113 345.259 219.34 340.499C217.567 335.739 216.68 330.185 216.68 323.839C216.68 318.519 217.38 313.549 218.78 308.929C220.18 304.309 222.28 300.272 225.08 296.819C227.88 293.365 231.38 290.635 235.58 288.629C239.78 286.622 244.68 285.619 250.28 285.619C255.973 285.619 260.92 286.622 265.12 288.629C269.32 290.635 272.82 293.342 275.62 296.749C278.42 300.155 280.497 304.192 281.85 308.859C283.203 313.525 283.88 318.519 283.88 323.839C283.88 329.625 283.087 334.852 281.5 339.519C279.913 344.185 277.65 348.199 274.71 351.559C271.77 354.919 268.223 357.509 264.07 359.329C259.917 361.149 255.32 362.059 250.28 362.059ZM274.92 323.839C274.92 319.545 274.453 315.532 273.52 311.799C272.587 308.065 271.14 304.822 269.18 302.069C267.22 299.315 264.7 297.145 261.62 295.559C258.54 293.972 254.76 293.179 250.28 293.179C245.893 293.179 242.137 294.042 239.01 295.769C235.883 297.495 233.34 299.782 231.38 302.629C229.42 305.475 227.973 308.742 227.04 312.429C226.107 316.115 225.64 319.919 225.64 323.839C225.64 328.319 226.177 332.449 227.25 336.229C228.323 340.009 229.887 343.252 231.94 345.959C233.993 348.665 236.56 350.765 239.64 352.259C242.72 353.752 246.267 354.499 250.28 354.499C254.667 354.499 258.423 353.635 261.55 351.909C264.677 350.182 267.22 347.872 269.18 344.979C271.14 342.085 272.587 338.819 273.52 335.179C274.453 331.539 274.92 327.759 274.92 323.839Z"/>
<path d="M307.68 360.099L299.28 360.099L299.28 287.579L307.68 287.579L307.68 297.659C311.04 294.112 314.517 291.219 318.11 288.979C321.703 286.739 326.02 285.619 331.06 285.619C335.54 285.619 339.693 286.389 343.52 287.929C347.347 289.469 350.567 292.152 353.18 295.979C354.953 298.592 356.003 301.275 356.33 304.029C356.657 306.782 356.82 309.652 356.82 312.639L356.82 360.099L348.42 360.099L348.42 312.779C348.42 306.245 346.973 301.345 344.08 298.079C341.187 294.812 336.38 293.179 329.66 293.179C327.047 293.179 324.667 293.575 322.52 294.369C320.373 295.162 318.437 296.212 316.71 297.519C314.983 298.825 313.513 300.319 312.3 301.999C311.087 303.679 310.153 305.452 309.5 307.319C308.66 309.652 308.147 311.892 307.96 314.039C307.773 316.185 307.68 318.519 307.68 321.039L307.68 360.099Z"/>
<path d="M382.02 337.419C383.327 343.672 385.683 348.082 389.09 350.649C392.497 353.215 397.373 354.499 403.72 354.499C406.8 354.499 409.46 354.125 411.7 353.379C413.94 352.632 415.783 351.629 417.23 350.369C418.677 349.109 419.773 347.685 420.52 346.099C421.267 344.512 421.64 342.832 421.64 341.059C421.64 337.512 420.497 334.875 418.21 333.149C415.923 331.422 413.053 330.069 409.6 329.089C406.147 328.109 402.413 327.269 398.4 326.569C394.387 325.869 390.653 324.819 387.2 323.419C383.747 322.019 380.877 320.012 378.59 317.399C376.303 314.785 375.16 311.099 375.16 306.339C375.16 300.272 377.377 295.302 381.81 291.429C386.243 287.555 392.52 285.619 400.64 285.619C408.48 285.619 414.85 287.369 419.75 290.869C424.65 294.369 427.613 300.225 428.64 308.439L420.1 308.439C419.353 302.839 417.23 298.895 413.73 296.609C410.23 294.322 405.82 293.179 400.5 293.179C395.18 293.179 391.12 294.322 388.32 296.609C385.52 298.895 384.12 301.905 384.12 305.639C384.12 308.905 385.263 311.402 387.55 313.129C389.837 314.855 392.707 316.255 396.16 317.329C399.613 318.402 403.347 319.359 407.36 320.199C411.373 321.039 415.107 322.229 418.56 323.769C422.013 325.309 424.883 327.385 427.17 329.999C429.457 332.612 430.6 336.252 430.6 340.919C430.6 344.372 429.853 347.429 428.36 350.089C426.867 352.749 424.813 354.965 422.2 356.739C419.587 358.512 416.483 359.842 412.89 360.729C409.297 361.615 405.353 362.059 401.06 362.059C396.767 362.059 392.963 361.429 389.65 360.169C386.337 358.909 383.513 357.159 381.18 354.919C378.847 352.679 377.027 350.065 375.72 347.079C374.413 344.092 373.667 340.872 373.48 337.419L382.02 337.419Z"/>
<path d="M472.6 360.379C471.573 360.565 470.22 360.892 468.54 361.359C466.86 361.825 464.993 362.059 462.94 362.059C458.74 362.059 455.543 361.009 453.35 358.909C451.157 356.809 450.06 353.052 450.06 347.639L450.06 294.579L439.84 294.579L439.84 287.579L450.06 287.579L450.06 267.419L458.46 267.419L458.46 287.579L472.04 287.579L472.04 294.579L458.46 294.579L458.46 344.279C458.46 346.052 458.507 347.592 458.6 348.899C458.693 350.205 458.973 351.279 459.44 352.119C459.907 352.959 460.63 353.565 461.61 353.939C462.59 354.312 463.967 354.499 465.74 354.499C466.86 354.499 468.003 354.405 469.17 354.219C470.337 354.032 471.48 353.799 472.6 353.519L472.6 360.379Z"/>
<path d="M533.5 322.019C529.953 323.512 526.36 324.492 522.72 324.959C519.08 325.425 515.44 325.799 511.8 326.079C505.36 326.545 500.343 327.992 496.75 330.419C493.157 332.845 491.36 336.532 491.36 341.479C491.36 343.719 491.803 345.655 492.69 347.289C493.577 348.922 494.743 350.275 496.19 351.349C497.637 352.422 499.317 353.215 501.23 353.729C503.143 354.242 505.08 354.499 507.04 354.499C510.4 354.499 513.667 354.079 516.84 353.239C520.013 352.399 522.837 351.115 525.31 349.389C527.783 347.662 529.767 345.469 531.26 342.809C532.753 340.149 533.5 336.999 533.5 333.359L533.5 322.019ZM519.36 317.819C520.947 317.632 522.837 317.352 525.03 316.979C527.223 316.605 529.02 316.092 530.42 315.439C531.82 314.785 532.683 313.689 533.01 312.149C533.337 310.609 533.5 309.185 533.5 307.879C533.5 303.585 532.123 300.062 529.37 297.309C526.617 294.555 521.973 293.179 515.44 293.179C512.547 293.179 509.887 293.435 507.46 293.949C505.033 294.462 502.91 295.349 501.09 296.609C499.27 297.869 497.777 299.549 496.61 301.649C495.443 303.749 494.673 306.385 494.3 309.559L485.76 309.559C486.04 305.265 487.02 301.602 488.7 298.569C490.38 295.535 492.55 293.062 495.21 291.149C497.87 289.235 500.95 287.835 504.45 286.949C507.95 286.062 511.66 285.619 515.58 285.619C519.22 285.619 522.65 286.015 525.87 286.809C529.09 287.602 531.89 288.862 534.27 290.589C536.65 292.315 538.517 294.625 539.87 297.519C541.223 300.412 541.9 303.959 541.9 308.159L541.9 347.639C541.9 350.905 542.483 352.982 543.65 353.869C544.817 354.755 547.173 354.545 550.72 353.239L550.72 359.819C550.067 360.005 549.11 360.285 547.85 360.659C546.59 361.032 545.353 361.219 544.14 361.219C542.833 361.219 541.573 361.079 540.36 360.799C538.96 360.612 537.84 360.169 537 359.469C536.16 358.769 535.483 357.929 534.97 356.949C534.457 355.969 534.107 354.895 533.92 353.729C533.733 352.562 533.64 351.325 533.64 350.019C530.093 353.939 526.033 356.925 521.46 358.979C516.887 361.032 511.94 362.059 506.62 362.059C503.447 362.059 500.39 361.639 497.45 360.799C494.51 359.959 491.92 358.652 489.68 356.879C487.44 355.105 485.667 352.935 484.36 350.369C483.053 347.802 482.4 344.745 482.4 341.199C482.4 328.879 490.847 321.599 507.74 319.359L519.36 317.819Z"/>
<path d="M572.28 360.099L563.88 360.099L563.88 287.579L572.28 287.579L572.28 297.659C575.64 294.112 579.117 291.219 582.71 288.979C586.303 286.739 590.62 285.619 595.66 285.619C600.14 285.619 604.293 286.389 608.12 287.929C611.947 289.469 615.167 292.152 617.78 295.979C619.553 298.592 620.603 301.275 620.93 304.029C621.257 306.782 621.42 309.652 621.42 312.639L621.42 360.099L613.02 360.099L613.02 312.779C613.02 306.245 611.573 301.345 608.68 298.079C605.787 294.812 600.98 293.179 594.26 293.179C591.647 293.179 589.267 293.575 587.12 294.369C584.973 295.162 583.037 296.212 581.31 297.519C579.583 298.825 578.113 300.319 576.9 301.999C575.687 303.679 574.753 305.452 574.1 307.319C573.26 309.652 572.747 311.892 572.56 314.039C572.373 316.185 572.28 318.519 572.28 321.039L572.28 360.099Z"/>
<path d="M636.26 360.099L636.26 352.679L684.42 294.579L639.48 294.579L639.48 287.579L695.2 287.579L695.2 294.999L647.04 353.099L697.02 353.099L697.02 360.099L636.26 360.099Z"/>
</g>
</g>
</svg>
